<?xml version="1.0" encoding="utf-8"?>
<!-- Generator: Adobe Illustrator 26.5.0, SVG Export Plug-In . SVG Version: 6.00 Build 0)  -->
<svg version="1.1" id="레이어_1" xmlns="http://www.w3.org/2000/svg" xmlns:xlink="http://www.w3.org/1999/xlink" x="0px"
	 y="0px" viewBox="0 0 20 20" style="enable-background:new 0 0 20 20;" xml:space="preserve">
<style type="text/css">
	.st0{fill:#FFFFFF;}
</style>
<g>
	<path class="st0" d="M19,19l-2.8-2.8C18,14.5,19,12.1,19,9.5C19,4.2,14.6,0,9.4,0l-5,0v0H0v13.2V20h4.4v-2.4L6.8,20H20L19,19z
		 M4.3,14.7c-2.9-2.9-2.9-7.5,0-10.3c2.9-2.9,7.5-2.9,10.3,0s2.9,7.5,0,10.3C11.8,17.5,7.2,17.5,4.3,14.7z"/>
	<path class="st0" d="M11.8,9.5H9.5l2.2-2.2v0L9.5,9.5l3.2-3.2c-1.8-1.8-4.7-1.8-6.5,0s-1.8,4.7,0,6.5c1.8,1.8,4.7,1.8,6.5,0
		c0.9-0.9,1.3-2.1,1.3-3.2L11.8,9.5z M9.1,9.1l-1,1h1.5h3c-0.1,0.6-0.4,1.1-0.8,1.5c-1.2,1.2-3.1,1.2-4.3,0c-1.2-1.2-1.2-3.1,0-4.3
		c1-1,2.7-1.2,3.8-0.4L9.1,9.1z"/>
</g>
</svg>
