<?xml version="1.0" standalone="no"?>
<!DOCTYPE svg PUBLIC "-//W3C//DTD SVG 20010904//EN"
 "http://www.w3.org/TR/2001/REC-SVG-20010904/DTD/svg10.dtd">
<svg version="1.0" xmlns="http://www.w3.org/2000/svg"
 width="25.000000pt" height="25.000000pt" viewBox="0 0 25.000000 25.000000"
 preserveAspectRatio="xMidYMid meet">

<g transform="translate(0.000000,25.000000) scale(0.100000,-0.100000)"
fill="#000000" stroke="none">
<path d="M54 186 c-10 -25 1 -129 14 -134 8 -2 12 6 11 25 l-1 28 -8 -25 c-6
-18 -8 -7 -9 43 -1 37 3 67 8 67 5 0 11 -10 13 -22 2 -19 10 -23 38 -24 l35
-2 -32 5 c-24 3 -33 9 -33 24 0 25 40 27 40 2 1 -17 2 -17 14 0 14 18 14 18
18 0 3 -15 5 -15 10 5 6 21 3 22 -53 22 -41 0 -61 -4 -65 -14z"/>
<path d="M191 120 c-2 -49 -5 -59 -11 -40 l-8 25 -1 -27 c-1 -29 16 -38 25
-14 3 7 3 38 1 67 l-3 54 -3 -65z"/>
</g>
</svg>
